# xmcd CD database file
#
# Track frame offsets:
#	150
#	36430
#	65532
#	93059
#	112166
#	129404
#	154504
#	180750
#	204004
#	229466
#	248774
#	289450
#	310917
#
# Disc length: 4517 seconds
#
# Revision: 0
# Processed by: cddbd v1.5.2PL0 Copyright (c) Steve Scherf et al.
# Submitted via: CDex 1.70beta2
#
DISCID=ad11a30d
DTITLE=Blue Note - Best Blue Note 100 Disc3 Big Hits
DYEAR=2009
DGENRE=Jazz
TTITLE0=Blue Bossa
TTITLE1=Gypsy Blue
TTITLE2=Sweet Love Of Mine
TTITLE3=Dear Old Stockholm
TTITLE4=Blue Pearl
TTITLE5=Melba's Mood
TTITLE6=My Girl Shirl
TTITLE7=The Ruby And The Pearl
TTITLE8=Acquitted
TTITLE9=Kathy
TTITLE10=Malaguena
TTITLE11=Theme For Sister -Salvation
TTITLE12=Sara's Dance
EXTD=YEAR: 2009
EXTT0=
EXTT1=
EXTT2=
EXTT3=
EXTT4=
EXTT5=
EXTT6=
EXTT7=
EXTT8=
EXTT9=
EXTT10=
EXTT11=
EXTT12=
PLAYORDER=
